<?xml version="1.0"?><svg width="250" height="160" xmlns="http://www.w3.org/2000/svg" xmlns:xlink="http://www.w3.org/1999/xlink">
 <title>Car from top</title>
 <metadata id="metadata124">image/svg+xml</metadata>
 <defs>
  <linearGradient id="linearGradient239">
   <stop stop-color="#f8ce00" id="stop240" offset="0"/>
   <stop stop-color="#b79700" id="stop241" offset="1"/>
  </linearGradient>
  <radialGradient gradientTransform="matrix(0.658029, 0, 0, 1.51969, -316.959, -105.794)" r="1269.346" fy="319.37118" fx="657.7631" cy="319.37118" cx="657.7631" spreadMethod="pad" gradientUnits="userSpaceOnUse" id="radialGradient2095" xlink:href="#linearGradient239"/>
  <radialGradient gradientTransform="matrix(0.508986, 0, 0, 3.96251, -604.329, -221.817)" r="15.849248" fy="153.65328" fx="897.24029" cy="153.65328" cx="897.24029" spreadMethod="pad" gradientUnits="userSpaceOnUse" id="radialGradient2097" xlink:href="#linearGradient239"/>
  <radialGradient gradientUnits="userSpaceOnUse" r="91.233506" fy="598.62947" fx="294.42873" cy="598.62947" cx="294.42873" gradientTransform="matrix(1.54525, 0, 0, 0.805976, -349.99, -188.226)" id="radialGradient2101" xlink:href="#linearGradient239"/>
  <radialGradient gradientTransform="matrix(1.22443, 0, 0, 0.981972, -373.742, -184.219)" r="115.38989" fy="819.89654" fx="378.78614" cy="819.89654" cx="378.78614" spreadMethod="pad" gradientUnits="userSpaceOnUse" id="radialGradient2103" xlink:href="#linearGradient239"/>
  <linearGradient y2="1.339284" x2="0.57093" y1="-0.125507" x1="0.553631" spreadMethod="pad" id="linearGradient2105" xlink:href="#linearGradient239"/>
  <radialGradient x2="1" x1="1" gradientTransform="matrix(0.508986, 0, 0, 3.96251, -27.248, -232.27)" r="15.849248" fy="153.65328" fx="897.24029" cy="153.65328" cx="897.24029" spreadMethod="pad" gradientUnits="userSpaceOnUse" id="svg_1" xlink:href="#linearGradient239"/>
 </defs>
 <g>
  <title>Layer 1</title>
  <g id="g1988">
   <rect fill="#60585a" fill-rule="evenodd" stroke-width="1pt" rx="8.58491" id="rect959" width="27.775" height="78.695648" x="16.286956" y="619.038443" ry="8.58491"/>
   <rect fill="#60585a" fill-rule="evenodd" stroke-width="1pt" rx="8.58491" id="rect958" width="27.775" height="78.695648" x="311.286976" y="609.038443" ry="8.58491"/>
   <g fill="#4a00ad" id="g786" transform="matrix(-1, 0, 0, -1, 467.972, 887.962)">
    <path fill="#4a00ad" fill-rule="nonzero" stroke-width="1pt" id="path787" d="m261.941986,825.029968c-5.472687,-0.320984 -11.136688,-0.388 -16.567001,0.340027c-3.573395,0.711975 -11.473404,3.766968 -7.654999,8.677002c5.245407,5.041992 14.530594,4.268982 21.161209,3.703003l0.513702,5.994019c-9.128906,0.75 -20.165207,0.991943 -26.840607,-6.329041c-5.980896,-9.520996 3.376297,-16.398987 12.025391,-18.016968c5.781906,-0.733032 11.564209,-0.348999 17.362305,-0.688049l0,6.320007z"/>
    <path fill="#4a00ad" fill-rule="nonzero" stroke-width="1pt" id="path788" d="m261.941986,856.607971c-5.472687,0.320984 -11.136688,0.388 -16.567001,-0.340027c-3.573395,-0.711975 -11.473404,-3.766968 -7.654999,-8.677002c5.245407,-5.041992 14.530594,-4.268982 21.161209,-3.703003l0.513702,-5.994019c-9.128906,-0.75 -20.165207,-0.991943 -26.840607,6.329041c-5.980896,9.520996 3.376297,16.398987 12.025391,18.016968c5.781906,0.733032 11.564209,0.348999 17.362305,0.688049l0,-6.320007z"/>
    <path fill="#4a00ad" fill-rule="nonzero" stroke-width="1pt" id="path789" d="m283.296783,842.933777c-2.064514,-0.197021 -4.186981,-0.111694 -6.256714,-0.122681c-1.751617,-0.005493 -7.631531,-0.902344 -8.722473,0.997375c-0.384766,1.354248 0.27002,2.904053 1.407928,3.660339c2.757965,1.417542 6.481079,0.69574 9.440216,0.553772c3.620483,-0.173523 8.530426,-0.57312 9.636658,3.83252c0.343018,3.596924 -1.898346,7.046509 -4.694092,9.133545c-3.69873,2.274414 -7.909271,1.854248 -12.035339,1.3349c-2.456848,-0.326477 -4.906921,-0.702515 -7.369934,-0.979492l0.452942,-3.802124c2.471039,0.2948 4.926361,0.703918 7.393066,1.030457c3.016968,0.369202 6.47934,0.929871 9.241882,-0.676453c1.589752,-1.122803 3.123169,-3.193298 3.13501,-5.222534c0.014465,-1.51123 -4.704559,-0.914734 -5.564178,-0.87207c-3.992035,0.213623 -8.332062,0.858337 -11.954895,-1.206726c-2.918182,-2.187683 -4.207916,-6.368652 -1.943665,-9.484863c2.956055,-2.807495 7.820404,-2.082886 11.576874,-2.095337c2.069733,-0.009644 4.1922,0.075745 6.256714,-0.121277l0,4.040649z"/>
    <g fill="#4a00ad" id="g790" transform="matrix(1.16605, 0, 0, 1.06243, -26.2102, -45.238)">
     <path fill="#4a00ad" fill-rule="nonzero" stroke-width="1pt" id="path791" d="m268.194824,832.279541c2.054016,0.227966 4.181,0.138 6.242004,0.149963c3.888,0.015015 7.776001,-0.016968 11.665009,-0.033997c0.778992,-0.005005 1.55899,-0.010986 2.338013,-0.036011l0,3.227051c-0.779022,-0.026001 -1.559021,-0.032043 -2.338013,-0.037048c-3.889008,-0.016968 -7.777008,-0.04895 -11.665009,-0.033997c-2.061005,0.012024 -4.187988,-0.078003 -6.242004,0.150024l0,-3.385986z"/>
     <path fill="#4a00ad" fill-rule="nonzero" stroke-width="1pt" id="path792" d="m279.649475,834.651611c-0.158997,1.242004 -0.07901,2.551025 -0.087006,3.798035c-0.011017,2.487976 -0.011993,4.976013 0.006012,7.464966c0.011993,1.64801 0.027985,3.296021 0.031982,4.944031c0.001007,0.986023 -0.002014,1.973022 -0.003998,2.958984l-3.321014,0c-0.001984,-0.985962 -0.005005,-1.972961 -0.002991,-2.958984c0.002991,-1.64801 0.019012,-3.296021 0.031006,-4.944031c0.018005,-2.488953 0.018005,-4.97699 0.006989,-7.464966c-0.009003,-1.247009 0.071991,-2.55603 -0.087982,-3.798035l3.427002,0z"/>
    </g>
    <g fill="#4a00ad" id="g793">
     <path fill="#4a00ad" fill-rule="nonzero" stroke-width="1pt" id="path794" d="m314.781006,839.69397c-0.219025,1.705994 -0.114014,3.502014 -0.134033,5.217041c-0.04599,4.309998 -0.050964,8.620972 -0.007996,12.932007c0.017029,1.41095 0.038025,2.822998 0.06601,4.233948l-3.274994,0c0.026978,-1.41095 0.049011,-2.822998 0.065979,-4.233948c0.04303,-4.311035 0.037018,-8.622009 -0.007996,-12.932007c-0.020996,-1.715027 0.085022,-3.511047 -0.133972,-5.217041l3.427002,0z"/>
     <path fill="#4a00ad" fill-rule="nonzero" stroke-width="1pt" id="path795" d="m312.738983,838.666016c1.410004,0.155945 2.863007,0.073975 4.279999,0.112976c3.027008,0.138 5.689026,1.020996 6.085999,4.411011c0.091003,3.394958 -1.771973,5.430969 -5.06897,6.059998c-1.547028,0.195007 -3.059021,0.135986 -4.605042,-0.028992l0.353027,-3.166992c1.221008,0.136963 2.421997,0.199951 3.644989,0.050964c1.605011,-0.296021 2.417999,-0.880005 2.404999,-2.575989c-0.123993,-1.534973 -1.596985,-1.487976 -2.894989,-1.549988c-1.383026,-0.028015 -2.821014,-0.080994 -4.200012,0.072998l0,-3.385986z"/>
     <path fill="#4a00ad" fill-rule="nonzero" stroke-width="1pt" id="path796" d="m314.083008,847.742004c1.222961,0.135986 2.491974,0.07196 3.719971,0.08197c2.638,0.020996 5.597015,-0.18396 7.788025,1.535034c1.852966,1.959961 1.214966,4.372009 0.520996,6.695984c-0.472015,1.572998 -0.874023,3.117981 -0.925018,4.766968c-0.002991,0.322021 0,0.641052 0.008026,0.962036l-3.305023,0.083984c-0.009979,-0.382996 -0.013,-0.765015 -0.009003,-1.14801c0.062012,-1.930969 0.526001,-3.742981 1.082001,-5.583008c0.252014,-0.843994 0.953003,-2.405945 0.485992,-3.289978c-1.115967,-1.268005 -4.172974,-0.812988 -5.645996,-0.801025c-1.227997,0.01001 -2.497009,-0.053955 -3.719971,0.082031l0,-3.385986z"/>
     <rect fill="#4a00ad" fill-rule="evenodd" stroke-width="1pt" id="rect797" width="2.35314" height="3.02545" x="311.386989" y="838.677979"/>
    </g>
    <path fill="#4a00ad" fill-rule="evenodd" stroke-width="1pt" d="m350.717987,850.612c0,6.958008 -5.196014,12.606018 -11.597992,12.606018c-6.402008,0 -11.596985,-5.64801 -11.596985,-12.606018c0,-6.958984 5.194977,-12.606018 11.596985,-12.606018c6.401978,0 11.597992,5.647034 11.597992,12.606018zm-3.697998,-0.322021c0,4.739014 -3.540009,8.585999 -7.899994,8.585999c-4.361023,0 -7.900024,-3.846985 -7.900024,-8.585999c0,-4.740967 3.539001,-8.586975 7.900024,-8.586975c4.359985,0 7.899994,3.846008 7.899994,8.586975z" id="path798"/>
   </g>
   <rect fill="#60585a" fill-rule="evenodd" stroke-width="1pt" rx="8.58491" id="rect317" width="27.775" height="78.695648" x="318.786976" y="94.038443" ry="8.58491"/>
   <rect fill="#60585a" fill-rule="evenodd" stroke-width="1pt" rx="8.58491" id="rect316" width="27.775" height="78.695648" x="8.633296" y="97.124673" ry="8.58491"/>
   <path fill="url(#radialGradient2095)" fill-rule="evenodd" stroke="black" stroke-width="1pt" d="m180.726379,778.982422c-113.068001,2.362 -130.401985,-17.919983 -147.105995,-21.260986c-16.704987,-38.776001 -19.877014,-365.731018 -9.855011,-392.458038c7.493011,-60.539978 -4.936005,-70.564972 -8.686981,-143.526001c-7.140015,-85.212982 9.815002,-37.828979 -4.438995,-124.480995c21.65799,-90.215996 -19.136017,-92.053001 168.52198,-100.630997c172.209015,2.401001 147.956024,10.415001 169.614044,100.630997c-14.254028,86.652016 2.700989,39.268013 -4.439026,124.480995c-3.750977,72.961029 -16.179993,82.986023 -8.687012,143.526001c10.022034,26.72702 6.850037,353.682037 -9.85498,392.458038c-26.153015,15.152954 -95.459015,21.260986 -145.068024,21.260986z" id="path184"/>
   <path fill="url(#radialGradient2097)" fill-rule="evenodd" stroke-width="1pt" d="m41.536819,277.879028c0,0 21.533524,82.441681 21.533524,82.441681c0,0 0,154.576324 -3.07584,157.15329c-3.077156,2.575928 -27.686481,46.372131 -27.686481,46.372131c0,0 6.151684,-280.814117 9.228798,-285.967102z" id="path272"/>
   <path fill="url(#svg_1)" fill-rule="evenodd" stroke-width="1pt" d="m318.841217,272.879028c0,0 -21.533539,82.441681 -21.533539,82.441681c0,0 0,154.576324 3.075836,157.15329c3.077118,2.575928 27.686493,46.372131 27.686493,46.372131c0,0 -6.151672,-280.814117 -9.22879,-285.967102z" id="path274"/>
   <path fill="#f7ce00" fill-rule="evenodd" stroke="black" stroke-width="1pt" stroke-opacity="0.459119" d="m37.198387,40.5214c-11.666992,18.667007 -10.81601,196.219017 7.850983,210.219017c18.029999,-14.851013 122.476021,-28.645996 142.342018,-27.364014c20.287994,-1.492004 99.694031,8.054993 124.088989,22.697021c6.577026,2.129974 19.72699,-205.553017 1.059021,-219.553017c-58.335022,-16.333008 -252.007027,-16.333008 -275.341011,14.000992z" id="path230"/>
   <path fill="url(#radialGradient2101)" fill-rule="evenodd" stroke-width="1pt" d="m41.763607,253.387634c0,0 65.530003,-26.897461 138.643192,-27.585052c65.833084,-0.640869 95.564758,9.623016 135.610321,25.019363c-4.853394,48.755905 -9.707794,94.942795 -21.843323,110.339188c-111.643402,-28.22702 -118.923477,-28.225952 -230.566864,0.001099c-2.426697,-15.396393 -24.270054,-105.208893 -21.843327,-107.774597z" id="path275"/>
   <path fill="black" fill-opacity="0.704403" fill-rule="evenodd" stroke="black" stroke-width="1pt" d="m45.510399,256.195404c0,0 63.78299,-24.761993 134.946999,-25.394989c64.078003,-0.589996 93.016998,8.859009 131.994965,23.03299c-4.723999,44.88501 -9.448975,87.404999 -21.260986,101.57901c-108.666992,-25.985992 -115.752991,-25.985016 -224.419991,0.001007c-2.362,-14.174011 -23.623016,-96.856018 -21.260986,-99.218018z" id="path185"/>
   <path fill="url(#radialGradient2103)" fill-rule="evenodd" stroke-width="1pt" d="m75.697243,527.426941c-12.36895,59.368103 -22.263477,173.159851 -22.263477,173.159851c19.790104,17.315674 121.211803,24.736816 123.685177,24.736816c7.421173,0 108.843887,-7.421143 126.159561,-32.157959c0,-14.842346 -9.895569,-121.211853 -19.79007,-168.212097c-86.579376,12.367859 -202.843437,7.421143 -207.791191,2.473389z" id="path270"/>
   <path fill="black" fill-opacity="0.786164" fill-rule="evenodd" stroke="black" stroke-width="1pt" d="m80.945396,532.58844c-11.812012,56.694946 -21.261017,165.362976 -21.261017,165.362976c18.899017,16.536011 115.754005,23.622986 118.116005,23.622986c7.087006,0 103.942993,-7.086975 120.479004,-30.709961c0,-14.174011 -9.450012,-115.754028 -18.898987,-160.638c-82.681,11.810974 -193.71003,7.086975 -198.435005,2.362z" id="path188"/>
   <path fill="#f7ce00" fill-rule="evenodd" stroke="black" stroke-width="1.25" stroke-opacity="0.553459" d="m321.902374,275.094421c0,0 28.348022,2.362 28.348022,2.362c0,0 14.174011,14.173981 4.724976,21.260986c-9.449951,7.087006 -33.072998,-2.362 -33.072998,-2.362c0,0 0,-16.536011 0,-21.260986z" id="path189"/>
   <path fill="#deb500" fill-rule="evenodd" stroke-width="1pt" d="m299.676025,779.701782c6.376984,-10.270996 8.106995,-21.955017 9.448975,-31.447998c0.650024,-8.051025 2.257996,-12.15802 0.132996,-21.984009c-1.181,-7.086975 -4.58197,-8.253967 -10.039978,-6.495972c-4.414001,2.71698 -2.363007,4.133972 -1.772003,18.307983c4.651001,21.067993 0.39801,45.575012 2.230011,41.619995z" id="path194"/>
   <path fill="#f7ce00" fill-rule="evenodd" stroke="black" stroke-width="1pt" stroke-opacity="0.54717" d="m36.946045,279.819122c0,0 -28.348022,2.362 -28.348022,2.362c0,0 -14.174011,14.173981 -4.724976,21.260986c9.449951,7.087006 33.072998,-2.362 33.072998,-2.362c0,0 0,-16.536011 0,-21.260986z" id="path190"/>
   <path fill="#deb500" fill-rule="evenodd" stroke-width="1pt" d="m55.092369,777.368408c-6.376984,-10.270996 -8.106995,-21.955017 -9.448975,-31.447998c-0.650024,-8.051025 -2.257996,-12.15802 -0.132996,-21.984009c1.181,-7.086975 4.58197,-8.253967 10.039978,-6.495972c4.414001,2.71698 2.363007,4.133972 1.772003,18.307983c-4.651001,21.067993 -0.39801,45.575012 -2.230011,41.619995z" id="path193"/>
   <rect fill="url(#linearGradient2105)" fill-rule="evenodd" stroke-width="1pt" rx="10.4992" id="rect191" width="245.68201" height="47.246536" x="54.959346" y="738.109733" ry="10.4992"/>
   <path fill="none" fill-rule="evenodd" stroke="black" stroke-width="1pt" d="m36.350037,306.528717c-2.333008,25.666992 -9.333008,452.678986 4.666016,443.345001" id="path228"/>
   <path fill="#2e87cf" fill-opacity="0.566038" fill-rule="evenodd" stroke="black" stroke-width="1pt" stroke-opacity="0.251572" d="m52.581944,13.02574c-9.02306,1.57313 -19.319565,18.997202 -14.583477,21.901739c11.280338,-5.688618 33.326981,-13.505915 54.98362,-15.684525c4.28553,-2.299852 10.13398,-9.355551 10.360023,-10.928679c-14.887833,-0.847191 -40.917145,2.775362 -50.760166,4.711465z" id="path304"/>
   <path fill="#2e87cf" fill-opacity="0.566038" fill-rule="evenodd" stroke="black" stroke-width="1pt" stroke-opacity="0.251572" d="m298.695129,8.115652c9.023071,1.573129 19.31958,14.632858 14.583496,17.537407c-11.280365,-5.688629 -33.326996,-7.505053 -54.983643,-9.683662c-4.285522,-2.299852 -10.133972,-10.992082 -10.360016,-12.565211c14.887817,-0.847191 40.917145,2.775362 50.760162,4.711466z" id="path306"/>
   <path fill="none" fill-opacity="0.564706" fill-rule="evenodd" stroke="black" stroke-width="1pt" stroke-opacity="0.371069" d="m112.285393,6.380402c37.098,-6.546997 99.837013,-6.001999 126.569008,-2.728996" id="path307"/>
   <path fill="none" fill-opacity="0.564706" fill-rule="evenodd" stroke="black" stroke-width="1pt" stroke-opacity="0.371069" d="m112.285393,9.108202c37.098,-6.546997 99.837013,-6.001999 126.569008,-2.728996" id="path308"/>
   <path fill="none" fill-opacity="0.564706" fill-rule="evenodd" stroke="black" stroke-width="1pt" stroke-opacity="0.371069" d="m112.285393,12.381502c37.098,-6.546997 99.837013,-6.001999 126.569008,-2.728996" id="path309"/>
   <path fill="none" fill-opacity="0.564706" fill-rule="evenodd" stroke="black" stroke-width="1pt" stroke-opacity="0.371069" d="m112.285393,16.200302c37.098,-6.000999 98.199989,-4.910995 124.387001,-3.275002" id="path310"/>
   <path fill="black" fill-opacity="0.685535" fill-rule="evenodd" stroke="black" stroke-width="1pt" d="m43.148369,291.630402c0,0 16.536011,75.595001 16.536011,75.595001c0,0 0,141.739014 -2.362,144.10199c-2.363007,2.362 -21.260986,42.520996 -21.260986,42.520996c0,0 4.723999,-257.492981 7.086975,-262.217987z" id="path186"/>
   <path fill="none" fill-rule="evenodd" stroke="black" stroke-width="1pt" d="m324.20639,299.528412c2.333008,25.666992 9.333008,452.678986 -4.666016,443.345001" id="path211"/>
   <path fill="black" fill-opacity="0.748428" fill-rule="evenodd" stroke="black" stroke-width="1pt" d="m317.178009,286.905823c0,0 -16.536011,75.595001 -16.536011,75.595001c0,0 0,141.739014 2.362,144.10199c2.363007,2.361969 21.260986,42.520966 21.260986,42.520966c0,0 -4.723999,-257.49295 -7.086975,-262.217957z" id="path187"/>
   <path fill="black" fill-rule="evenodd" stroke-width="1pt" id="path430" d="m184.562134,156.439392"/>
  </g>
 </g>
</svg>